<?xml version="1.0" encoding="utf-8"?>
<!-- Generator: Adobe Illustrator 24.0.2, SVG Export Plug-In . SVG Version: 6.00 Build 0)  -->
<svg version="1.1" xmlns="http://www.w3.org/2000/svg" xmlns:xlink="http://www.w3.org/1999/xlink" x="0px" y="0px"
	 viewBox="0 0 400 400" style="enable-background:new 0 0 400 400;" xml:space="preserve">
<style type="text/css">
	.st0{fill:#58595B;}
	.st1{fill:#FFFFFF;}
</style>
<g id="Layer_1">
	<path class="st0" d="M350.35,399.57h-300c-27.61,0-50-22.39-50-50v-300c0-27.61,22.39-50,50-50h300c27.61,0,50,22.39,50,50v300
		C400.35,377.19,377.96,399.57,350.35,399.57z"/>
</g>
<g id="Layer_2">
	<path class="st1" d="M352.31,99.53H48.38c-8,0-14.52,6.51-14.52,14.52v171.18c0,8,6.51,14.52,14.52,14.52h303.93
		c8,0,14.52-6.51,14.52-14.52V114.04C366.83,106.04,360.32,99.53,352.31,99.53z M200.36,220.53l-142.51-109h286.02L200.36,220.53z
		 M158.82,203.86L45.87,281.33V117.47L158.82,203.86z M168.85,211.54l27.86,21.31l3.65,1.86l3.63-1.85l27.98-21.25l111,76.13H57.74
		L168.85,211.54z M242.02,203.96l112.81-85.68v163.05L242.02,203.96z"/>
</g>
</svg>
