<?xml version="1.0" encoding="utf-8"?>
<!-- Generator: Adobe Illustrator 24.0.2, SVG Export Plug-In . SVG Version: 6.00 Build 0)  -->
<svg version="1.1" id="Layer_1" xmlns="http://www.w3.org/2000/svg" xmlns:xlink="http://www.w3.org/1999/xlink" x="0px" y="0px"
	 viewBox="0 0 400 400" style="enable-background:new 0 0 400 400;" xml:space="preserve">
<style type="text/css">
	.st0{fill:#FFFFFF;}
	.st1{fill-rule:evenodd;clip-rule:evenodd;fill:#191717;}
	.st2{fill:#191717;}
</style>
<circle class="st0" cx="200" cy="200.06" r="200"/>
<g>
	<path class="st1" d="M200,12.19c-103.54,0-187.5,83.94-187.5,187.5c0,82.84,53.72,153.12,128.22,177.92
		c9.37,1.73,12.81-4.07,12.81-9.02c0-4.47-0.17-19.24-0.25-34.91c-52.16,11.34-63.17-22.12-63.17-22.12
		c-8.53-21.67-20.82-27.44-20.82-27.44c-17.01-11.64,1.28-11.4,1.28-11.4c18.83,1.32,28.74,19.32,28.74,19.32
		c16.72,28.66,43.86,20.38,54.56,15.59c1.68-12.12,6.54-20.39,11.9-25.07c-41.65-4.74-85.43-20.82-85.43-92.66
		c0-20.47,7.33-37.2,19.32-50.33c-1.95-4.72-8.37-23.79,1.82-49.62c0,0,15.75-5.04,51.57,19.22c14.96-4.16,31-6.24,46.93-6.31
		c15.93,0.07,31.99,2.16,46.97,6.31c35.79-24.26,51.51-19.22,51.51-19.22c10.21,25.83,3.79,44.9,1.84,49.62
		c12.02,13.13,19.3,29.86,19.3,50.33c0,72.02-43.86,87.87-85.62,92.51c6.73,5.82,12.72,17.23,12.72,34.72
		c0,25.09-0.22,45.28-0.22,51.46c0,4.99,3.37,10.84,12.88,9c74.46-24.82,128.12-95.08,128.12-177.89
		C387.5,96.13,303.55,12.19,200,12.19z"/>
	<path class="st2" d="M75.75,287.16c-0.44,1-2.01,1.29-3.43,0.61c-1.45-0.65-2.26-2.01-1.8-3c0.43-1.02,2-1.31,3.44-0.62
		C75.42,284.79,76.25,286.16,75.75,287.16L75.75,287.16z M73.29,285.33"/>
	<path class="st2" d="M83.85,296.19c-0.95,0.88-2.82,0.47-4.08-0.93c-1.31-1.39-1.55-3.26-0.59-4.16c0.98-0.88,2.79-0.47,4.1,0.93
		C84.59,293.45,84.85,295.3,83.85,296.19L83.85,296.19z M81.94,294.14"/>
	<path class="st2" d="M91.74,307.71c-1.23,0.85-3.23,0.05-4.47-1.72c-1.23-1.78-1.23-3.91,0.03-4.77c1.24-0.85,3.21-0.08,4.47,1.68
		C92.99,304.7,92.99,306.84,91.74,307.71L91.74,307.71z M91.74,307.71"/>
	<path class="st2" d="M102.54,318.84c-1.1,1.21-3.43,0.88-5.14-0.77c-1.75-1.61-2.23-3.9-1.14-5.11c1.11-1.21,3.46-0.87,5.18,0.77
		C103.18,315.34,103.71,317.64,102.54,318.84L102.54,318.84z M102.54,318.84"/>
	<path class="st2" d="M117.44,325.3c-0.49,1.57-2.73,2.28-5,1.61c-2.26-0.69-3.74-2.52-3.29-4.1c0.47-1.58,2.73-2.32,5.01-1.61
		C116.43,321.89,117.91,323.71,117.44,325.3L117.44,325.3z M117.44,325.3"/>
	<path class="st2" d="M133.81,326.5c0.05,1.65-1.87,3.02-4.24,3.05c-2.39,0.05-4.33-1.28-4.35-2.9c0-1.67,1.88-3.02,4.27-3.06
		C131.86,323.53,133.81,324.86,133.81,326.5L133.81,326.5z M133.81,326.5"/>
	<path class="st2" d="M149.04,323.91c0.28,1.61-1.37,3.26-3.73,3.7c-2.32,0.43-4.47-0.57-4.77-2.16c-0.29-1.65,1.39-3.3,3.71-3.73
		C146.62,321.3,148.74,322.27,149.04,323.91L149.04,323.91z M149.04,323.91"/>
</g>
</svg>
