<?xml version="1.0" encoding="UTF-8" standalone="yes"?>
<!DOCTYPE svg PUBLIC "-//W3C//DTD SVG 1.0//EN" "http://www.w3.org/TR/2001/REC-SVG-20010904/DTD/svg10.dtd">
<svg height="300" width="400" xmlns="http://www.w3.org/2000/svg" xmlns:svg="http://www.w3.org/2000/svg" xmlns:xlink="http://www.w3.org/1999/xlink">
	<g id="lines" stroke="#369" stroke-width="4">
		<line x1="0" x2="400" y1="247.770674297559" y2="76.6049065723834" />
	</g>
	<g fill="#f73" id="points">
		<circle cx="143" cy="177" r="3" />
		<circle cx="187" cy="213" r="3" />
		<circle cx="370" cy="63" r="3" />
		<circle cx="136" cy="232" r="3" />
		<circle cx="311" cy="102" r="3" />
		<circle cx="263" cy="167" r="3" />
		<circle cx="55" cy="207" r="3" />
		<circle cx="0" cy="234" r="3" />
		<circle cx="170" cy="109" r="3" />
		<circle cx="202" cy="191" r="3" />
		<circle cx="339" cy="72" r="3" />
		<circle cx="375" cy="-10" r="3" />
		<circle cx="122" cy="238" r="3" />
		<circle cx="295" cy="67" r="3" />
		<circle cx="83" cy="204" r="3" />
		<circle cx="45" cy="223" r="3" />
		<circle cx="22" cy="256" r="3" />
		<circle cx="323" cy="170" r="3" />
		<circle cx="293" cy="139" r="3" />
		<circle cx="196" cy="185" r="3" />
		<circle cx="219" cy="78" r="3" />
		<circle cx="33" cy="242" r="3" />
		<circle cx="300" cy="18" r="3" />
		<circle cx="76" cy="251" r="3" />
		<circle cx="332" cy="90" r="3" />
		<circle cx="6" cy="247" r="3" />
		<circle cx="88" cy="214" r="3" />
		<circle cx="7" cy="235" r="3" />
		<circle cx="216" cy="136" r="3" />
		<circle cx="15" cy="217" r="3" />
		<circle cx="92" cy="210" r="3" />
		<circle cx="329" cy="37" r="3" />
		<circle cx="328" cy="156" r="3" />
		<circle cx="251" cy="178" r="3" />
		<circle cx="179" cy="178" r="3" />
		<circle cx="391" cy="158" r="3" />
		<circle cx="138" cy="169" r="3" />
		<circle cx="121" cy="211" r="3" />
		<circle cx="353" cy="161" r="3" />
		<circle cx="148" cy="205" r="3" />
		<circle cx="313" cy="162" r="3" />
		<circle cx="86" cy="240" r="3" />
		<circle cx="89" cy="195" r="3" />
		<circle cx="130" cy="216" r="3" />
		<circle cx="117" cy="166" r="3" />
		<circle cx="291" cy="178" r="3" />
		<circle cx="310" cy="121" r="3" />
		<circle cx="143" cy="171" r="3" />
		<circle cx="135" cy="220" r="3" />
		<circle cx="208" cy="106" r="3" />
		<circle cx="333" cy="150" r="3" />
		<circle cx="8" cy="240" r="3" />
		<circle cx="40" cy="204" r="3" />
		<circle cx="331" cy="100" r="3" />
		<circle cx="343" cy="159" r="3" />
		<circle cx="316" cy="151" r="3" />
		<circle cx="97" cy="162" r="3" />
		<circle cx="360" cy="125" r="3" />
		<circle cx="185" cy="154" r="3" />
		<circle cx="307" cy="77" r="3" />
		<circle cx="273" cy="88" r="3" />
		<circle cx="37" cy="218" r="3" />
		<circle cx="228" cy="115" r="3" />
		<circle cx="324" cy="78" r="3" />
		<circle cx="95" cy="240" r="3" />
		<circle cx="337" cy="135" r="3" />
		<circle cx="193" cy="180" r="3" />
		<circle cx="392" cy="152" r="3" />
		<circle cx="285" cy="43" r="3" />
		<circle cx="169" cy="213" r="3" />
		<circle cx="366" cy="13" r="3" />
		<circle cx="116" cy="214" r="3" />
		<circle cx="51" cy="206" r="3" />
		<circle cx="190" cy="136" r="3" />
		<circle cx="29" cy="266" r="3" />
		<circle cx="105" cy="223" r="3" />
		<circle cx="73" cy="223" r="3" />
		<circle cx="116" cy="231" r="3" />
		<circle cx="33" cy="254" r="3" />
		<circle cx="134" cy="140" r="3" />
		<circle cx="4" cy="234" r="3" />
		<circle cx="120" cy="202" r="3" />
		<circle cx="370" cy="148" r="3" />
		<circle cx="368" cy="46" r="3" />
		<circle cx="237" cy="131" r="3" />
		<circle cx="162" cy="223" r="3" />
		<circle cx="394" cy="98" r="3" />
		<circle cx="300" cy="148" r="3" />
		<circle cx="334" cy="67" r="3" />
		<circle cx="248" cy="124" r="3" />
		<circle cx="18" cy="224" r="3" />
		<circle cx="107" cy="209" r="3" />
		<circle cx="203" cy="169" r="3" />
		<circle cx="22" cy="265" r="3" />
		<circle cx="138" cy="167" r="3" />
		<circle cx="373" cy="99" r="3" />
		<circle cx="290" cy="177" r="3" />
		<circle cx="129" cy="198" r="3" />
		<circle cx="326" cy="67" r="3" />
		<circle cx="301" cy="63" r="3" />
	</g>
	<!--
	Generated using the Perl SVG Module V2.86
	by Ronan Oger
	Info: http://www.roitsystems.com/
	-->
</svg>