<svg xmlns="http://www.w3.org/2000/svg" viewBox="0 0 280 200"><defs><style>.cls-1{fill:none;stroke:#29abe2;stroke-miterlimit:10;stroke-width:3px;}.cls-2{fill:#666;}.cls-3{fill:#0071bc;}.cls-4{font-size:24px;fill:#fcee21;font-family:MyriadPro-Bold, Myriad Pro;font-weight:700;}</style></defs><g id="Edges"><line class="cls-1" x1="126" y1="34" x2="72" y2="88"/><line class="cls-1" x1="154" y1="34" x2="208" y2="88"/><line class="cls-1" x1="47.5" y1="115.5" x2="20.5" y2="162.5"/><line class="cls-1" x1="72.5" y1="115.5" x2="99.5" y2="162.5"/><line class="cls-1" x1="232.5" y1="115.5" x2="259.5" y2="162.5"/><line class="cls-1" x1="207.5" y1="115.5" x2="180.5" y2="162.5"/></g><g id="Vertices"><circle class="cls-2" cx="140" cy="20" r="19.5"/><path class="cls-3" d="M200,21a19,19,0,1,1-19,19,19,19,0,0,1,19-19m0-1a20,20,0,1,0,20,20,20.1,20.1,0,0,0-20-20Z" transform="translate(-60 -20)"/><circle class="cls-2" cx="60" cy="100" r="19.5"/><path class="cls-3" d="M120,101a19,19,0,1,1-19,19,19,19,0,0,1,19-19m0-1a20,20,0,1,0,20,20,20.1,20.1,0,0,0-20-20Z" transform="translate(-60 -20)"/><circle class="cls-2" cx="100" cy="180" r="19.5"/><path class="cls-3" d="M160,181a19,19,0,1,1-19,19,19,19,0,0,1,19-19m0-1a20,20,0,1,0,20,20,20.1,20.1,0,0,0-20-20Z" transform="translate(-60 -20)"/><circle class="cls-2" cx="20" cy="180" r="19.5"/><path class="cls-3" d="M80,181a19,19,0,1,1-19,19,19,19,0,0,1,19-19m0-1a20,20,0,1,0,20,20,20.1,20.1,0,0,0-20-20Z" transform="translate(-60 -20)"/><circle class="cls-2" cx="220" cy="100" r="19.5"/><path class="cls-3" d="M280,101a19,19,0,1,1-19,19,19,19,0,0,1,19-19m0-1a20,20,0,1,0,20,20,20.1,20.1,0,0,0-20-20Z" transform="translate(-60 -20)"/><text class="cls-4" transform="translate(133.3 27)">1</text><text class="cls-4" transform="translate(213.3 107)">3</text><text class="cls-4" transform="translate(53.3 107)">2</text><text class="cls-4" transform="translate(13.3 187)">4</text><text class="cls-4" transform="translate(93.3 187)">5</text><circle class="cls-2" cx="260" cy="180" r="19.5"/><path class="cls-3" d="M320,181a19,19,0,1,1-19,19,19,19,0,0,1,19-19m0-1a20,20,0,1,0,20,20,20.1,20.1,0,0,0-20-20Z" transform="translate(-60 -20)"/><circle class="cls-2" cx="180" cy="180" r="19.5"/><path class="cls-3" d="M240,181a19,19,0,1,1-19,19,19,19,0,0,1,19-19m0-1a20,20,0,1,0,20,20,20.1,20.1,0,0,0-20-20Z" transform="translate(-60 -20)"/><text class="cls-4" transform="translate(173.3 187)">6</text><text class="cls-4" transform="translate(252.9 187)">7 </text></g></svg>