<?xml version="1.0" encoding="UTF-8" standalone="yes"?>
<!DOCTYPE svg PUBLIC "-//W3C//DTD SVG 1.0//EN" "http://www.w3.org/TR/2001/REC-SVG-20010904/DTD/svg10.dtd">
<svg height="300" width="400" xmlns="http://www.w3.org/2000/svg" xmlns:svg="http://www.w3.org/2000/svg" xmlns:xlink="http://www.w3.org/1999/xlink">
	<g id="lines" style="fill: none; stroke: #ccc; stroke-width: 2">
		<line x1="84" x2="23" y1="5" y2="30" />
		<line x1="202" x2="84" y1="5" y2="5" />
		<line x1="255" x2="202" y1="11" y2="5" />
		<line x1="266" x2="255" y1="15" y2="11" />
		<line x1="366" x2="266" y1="94" y2="15" />
		<line x1="397" x2="366" y1="247" y2="94" />
		<line x1="58" x2="397" y1="290" y2="247" />
		<line x1="7" x2="58" y1="203" y2="290" />
		<line x1="23" x2="7" y1="30" y2="203" />
	</g>
	<g id="points" style="fill: #ffee77; stroke: #ffee77">
		<circle cx="59" cy="128" r="3" />
		<circle cx="120" cy="10" r="3" />
		<circle cx="223" cy="89" r="3" />
		<circle cx="28" cy="218" r="3" />
		<circle cx="232" cy="189" r="3" />
		<circle cx="101" cy="211" r="3" />
		<circle cx="84" cy="5" r="3" />
		<circle cx="359" cy="158" r="3" />
		<circle cx="266" cy="15" r="3" />
		<circle cx="366" cy="94" r="3" />
		<circle cx="147" cy="221" r="3" />
		<circle cx="255" cy="11" r="3" />
		<circle cx="23" cy="30" r="3" />
		<circle cx="397" cy="247" r="3" />
		<circle cx="150" cy="29" r="3" />
		<circle cx="58" cy="290" r="3" />
		<circle cx="189" cy="221" r="3" />
		<circle cx="7" cy="203" r="3" />
		<circle cx="167" cy="183" r="3" />
		<circle cx="123" cy="97" r="3" />
		<circle cx="48" cy="107" r="3" />
		<circle cx="59" cy="244" r="3" />
		<circle cx="119" cy="269" r="3" />
		<circle cx="115" cy="155" r="3" />
		<circle cx="202" cy="5" r="3" />
	</g>
	<!--
	Generated using the Perl SVG Module V2.86
	by Ronan Oger
	Info: http://www.roitsystems.com/
	-->
</svg>