<svg xmlns="http://www.w3.org/2000/svg" xmlns:xlink="http://www.w3.org/1999/xlink" viewBox="0 0 526 207"><defs><style>.cls-1{fill:#0071bc;}.cls-2{fill:none;stroke:#666;stroke-miterlimit:10;}.cls-3,.cls-4{font-size:24px;font-family:MyriadPro-Bold, Myriad Pro;font-weight:700;}.cls-3{fill:gray;}.cls-4{fill:#fff;letter-spacing:1.28em;}</style><symbol id="Person" data-name="Person" viewBox="0 0 87.8 180"><path class="cls-1" d="M57.3,48.1h-45A12.3,12.3,0,0,0,0,60.3v51.2a12.4,12.4,0,0,0,12.3,12.3h1v43.9A12.3,12.3,0,0,0,25.6,180H44a12.4,12.4,0,0,0,12.3-12.3V123.8h1a12.3,12.3,0,0,0,12.2-12.3V60.3A12.2,12.2,0,0,0,57.3,48.1Z"/><circle class="cls-1" cx="34.8" cy="21.5" r="21.5"/></symbol></defs><g id="Layer_1" data-name="Layer 1"><rect class="cls-2" x="32" y="14" width="472" height="180" rx="10.1"/><line class="cls-2" x1="32" y1="164" x2="504" y2="164"/><line class="cls-2" x1="32" y1="134" x2="504" y2="134"/><line class="cls-2" x1="32" y1="104" x2="504" y2="104"/><line class="cls-2" x1="32" y1="74" x2="504" y2="74"/><line class="cls-2" x1="32" y1="44" x2="504" y2="44"/><line class="cls-2" x1="425.3" y1="14" x2="425.3" y2="194"/><line class="cls-2" x1="346.7" y1="14" x2="346.7" y2="194"/><line class="cls-2" x1="268" y1="14" x2="268" y2="194"/><line class="cls-2" x1="189.3" y1="14" x2="189.3" y2="194"/><line class="cls-2" x1="110.7" y1="14" x2="110.7" y2="194"/></g><g id="Layer_2" data-name="Layer 2"><use width="87.8" height="180" transform="translate(277.8 44) scale(0.83)" xlink:href="#Person"/><use width="87.8" height="180" transform="translate(57.2 134) scale(0.33)" xlink:href="#Person"/><use width="87.8" height="180" transform="translate(115 14)" xlink:href="#Person"/><use width="87.8" height="180" transform="translate(382 164) scale(0.17)" xlink:href="#Person"/><path class="cls-1" d="M244.8,106h-30a8.2,8.2,0,0,0-8.2,8.2v34.1a8.2,8.2,0,0,0,8.2,8.2h.7v29.3a8.2,8.2,0,0,0,8.1,8.2h12.3a8.2,8.2,0,0,0,8.2-8.2V156.5h.7a8.2,8.2,0,0,0,8.2-8.2V114.2A8.2,8.2,0,0,0,244.8,106Z"/><circle class="cls-1" cx="229.8" cy="88.3" r="14.3"/><path class="cls-1" d="M477,128H454.5a6.1,6.1,0,0,0-6.1,6.2v25.5a6.1,6.1,0,0,0,6.1,6.2h.5v22a6.2,6.2,0,0,0,6.2,6.1h9.2a6.2,6.2,0,0,0,6.1-6.1v-22h.5a6.2,6.2,0,0,0,6.2-6.2V134.2A6.2,6.2,0,0,0,477,128Z"/><circle class="cls-1" cx="465.8" cy="114.7" r="10.7"/><text class="cls-3" transform="translate(12 19.9)">6<tspan x="0" y="30">5</tspan><tspan x="0" y="60">4</tspan><tspan x="0" y="90">3</tspan><tspan x="0" y="120">2</tspan><tspan x="0" y="150">1</tspan><tspan x="0" y="180">0</tspan></text><text class="cls-4" transform="translate(62.7 191.2)">1 0 2 0 1 2</text></g></svg>