<?xml version="1.0" encoding="UTF-8"?> <svg xmlns="http://www.w3.org/2000/svg" xmlns:xlink="http://www.w3.org/1999/xlink" viewBox="0 0 601 601"><defs><style>.cls-1{isolation:isolate;}.cls-2{fill:#d9d1bf;stroke:#726658;}.cls-2,.cls-6{stroke-miterlimit:10;}.cls-3{fill:#c2b59b;}.cls-4{opacity:0.5;mix-blend-mode:multiply;}.cls-5{fill:#009444;}.cls-6{fill:none;stroke:#594a42;}</style><symbol id="Queen-2" data-name="Queen" viewBox="0 0 60.6 57"><path d="M3.6,15.6A4.1,4.1,0,0,1,.4,9.7,4.4,4.4,0,0,1,6.3,7.9c2.2,1.3,2.5,3.7.7,6.8l7,14.5h.1c0-.7.1-1.3.1-1.9l.9-16.1c.1-.6-.2-.8-.6-1a4.2,4.2,0,0,1-2-4.8,4.3,4.3,0,0,1,4.6-2.9,4.3,4.3,0,0,1,3.5,4A4.4,4.4,0,0,1,18.8,10l6.1,17.7h.2c1.1-6.6,2.3-13.2,3.5-19.8a4.1,4.1,0,0,1-2.4-3.8,4,4,0,0,1,1.2-2.9,4,4,0,0,1,5.9.2,4.1,4.1,0,0,1-1.2,6.5l3.4,19.8h.2l6-17.4a21,21,0,0,1-1.4-2.4,4,4,0,0,1,2.1-5.1,4.4,4.4,0,0,1,5.2,1.5,4.1,4.1,0,0,1-1.4,5.8,1.3,1.3,0,0,0-.7,1.4c.3,3.9.5,7.8.7,11.8.1,1.9.2,3.9.5,5.9l6.9-14.6a4.5,4.5,0,0,1-1.1-4.3,3.8,3.8,0,0,1,1.9-2.4,4.3,4.3,0,0,1,5.8,1.7,3.9,3.9,0,0,1-.1,3.8A4.4,4.4,0,0,1,57,15.6c-.3,2.2-.5,4.4-.8,6.6-.6,4.7-1.2,9.3-1.9,14a.9.9,0,0,1-.3.7c-1.2,1.6-2.5,3.1-3.7,4.6a9.5,9.5,0,0,0-1,1.7c-.7,1.3-1.2,2.7-1.8,4.1l1.8,4.3.3.9c.3.8.2,1-.5,1.5a20.1,20.1,0,0,1-5.7,2.3,24.8,24.8,0,0,1-5.4.6H22.4A22.1,22.1,0,0,1,12,54.3l-.7-.5a.8.8,0,0,1-.3-1.2l2.1-5.3c-1.1-2.2-1.6-4.7-3.4-6.6S8.2,38.8,7.4,38A6.2,6.2,0,0,1,6,34.8c-.7-6.1-1.5-12.3-2.3-18.4C3.7,16.1,3.6,15.9,3.6,15.6ZM40.9,32.7a11.5,11.5,0,0,1-5.5.8,12,12,0,0,1-5.1-2.1c-4.7,2.5-5.4,2.6-10.6,1.3a12.8,12.8,0,0,1-9.1,2.1L8.8,36.2l3.4,4.2a53.6,53.6,0,0,1,36.2,0l3.4-4.2L50,34.8A13.3,13.3,0,0,1,40.9,32.7Zm6.4,9.6a53.2,53.2,0,0,0-18.1-2.9,54.4,54.4,0,0,0-15.9,2.9l1.6,3.6a41,41,0,0,1,30.8,0Zm-.5,8.8c-.3-.7-.6-1.2-.8-1.8a2.8,2.8,0,0,0-1.8-1.7,39.6,39.6,0,0,0-19.3-2.1,33,33,0,0,0-8.6,2.2,2,2,0,0,0-1.2.8A19.2,19.2,0,0,0,13.9,51H14A52.5,52.5,0,0,1,46.8,51.1ZM46,53.2a51.4,51.4,0,0,0-31.5,0h.3a23.8,23.8,0,0,0,7.5,1.5H37.8A20.9,20.9,0,0,0,46,53.2ZM24,31.5c-2.3-6.4-4.4-12.6-6.6-18.8h-.2c-.3,6.5-.7,12.9-1.1,19.4h.3c.3-.1.5-.1.7-.3a4.2,4.2,0,0,1,4.9-.6A5.4,5.4,0,0,0,24,31.5ZM43.4,12.7h-.2c-2.2,6.2-4.3,12.4-6.5,18.7h.6l2-.4c2.4-.8,1.7-.7,3.7.4l1.5.8ZM33.7,30.9h.1c-1.1-6.6-2.2-13.1-3.4-19.7h-.2L26.7,30.9l.6-.2,2.2-1.5a1.2,1.2,0,0,1,1.6,0c.3.2.5.5.8.6ZM8.1,34l1.5-1.1a1.9,1.9,0,0,1,1-.3h2.7c-2.3-4.8-4.7-9.6-7-14.3H6.2ZM54.4,18.5h-.1c-2.3,4.8-4.7,9.5-7,14.3H48a13.3,13.3,0,0,1,2,0,2.8,2.8,0,0,1,1.3.4,4.7,4.7,0,0,1,1.2.9C53.2,28.7,53.8,23.6,54.4,18.5ZM14.5,6.6a2.1,2.1,0,0,0,2,2,2.2,2.2,0,0,0,2-2,2.2,2.2,0,0,0-2-2A2.1,2.1,0,0,0,14.5,6.6Zm42,3a1.8,1.8,0,0,0-2,1.9,1.8,1.8,0,0,0,1.9,1.9,1.8,1.8,0,0,0,2-2A1.7,1.7,0,0,0,56.5,9.6Zm-10.4-3a2,2,0,0,0-1.9-2,2.2,2.2,0,0,0-2.1,2,2.2,2.2,0,0,0,2,2A2.1,2.1,0,0,0,46.1,6.6ZM32.3,4.2a2.2,2.2,0,0,0-2-2.1,2.2,2.2,0,0,0-2,1.9,2.1,2.1,0,0,0,2,2.1A2.1,2.1,0,0,0,32.3,4.2ZM4.2,9.6a1.8,1.8,0,0,0-2,1.9,1.8,1.8,0,0,0,1.9,1.9,1.9,1.9,0,0,0,2-1.9A1.8,1.8,0,0,0,4.2,9.6Z"></path></symbol></defs><title>Chessboard</title><g class="cls-1"><g id="Layer_1" data-name="Layer 1"><rect class="cls-2" x="0.5" y="0.5" width="600" height="600"></rect><rect class="cls-3" x="0.5" y="0.5" width="75" height="75"></rect><rect class="cls-3" x="75.5" y="75.5" width="75" height="75"></rect><rect class="cls-3" x="150.5" y="0.5" width="75" height="75"></rect><rect class="cls-3" x="225.5" y="75.5" width="75" height="75"></rect><rect class="cls-3" x="0.5" y="150.5" width="75" height="75"></rect><rect class="cls-3" x="75.5" y="225.5" width="75" height="75"></rect><rect class="cls-3" x="150.5" y="150.5" width="75" height="75"></rect><rect class="cls-3" x="225.5" y="225.5" width="75" height="75"></rect><rect class="cls-3" x="300.5" y="0.5" width="75" height="75"></rect><rect class="cls-3" x="375.5" y="75.5" width="75" height="75"></rect><rect class="cls-3" x="450.5" y="0.5" width="75" height="75"></rect><rect class="cls-3" x="525.5" y="75.5" width="75" height="75"></rect><rect class="cls-3" x="300.5" y="150.5" width="75" height="75"></rect><rect class="cls-3" x="375.5" y="225.5" width="75" height="75"></rect><rect class="cls-3" x="450.5" y="150.5" width="75" height="75"></rect><rect class="cls-3" x="525.5" y="225.5" width="75" height="75"></rect><rect class="cls-3" x="0.5" y="300.5" width="75" height="75"></rect><rect class="cls-3" x="75.5" y="375.5" width="75" height="75"></rect><rect class="cls-3" x="150.5" y="300.5" width="75" height="75"></rect><rect class="cls-3" x="225.5" y="375.5" width="75" height="75"></rect><rect class="cls-3" x="0.5" y="450.5" width="75" height="75"></rect><rect class="cls-3" x="75.5" y="525.5" width="75" height="75"></rect><rect class="cls-3" x="150.5" y="450.5" width="75" height="75"></rect><rect class="cls-3" x="225.5" y="525.5" width="75" height="75"></rect><rect class="cls-3" x="300.5" y="300.5" width="75" height="75"></rect><rect class="cls-3" x="375.5" y="375.5" width="75" height="75"></rect><rect class="cls-3" x="450.5" y="300.5" width="75" height="75"></rect><rect class="cls-3" x="525.5" y="375.5" width="75" height="75"></rect><rect class="cls-3" x="300.5" y="450.5" width="75" height="75"></rect><rect class="cls-3" x="375.5" y="525.5" width="75" height="75"></rect><rect class="cls-3" x="450.5" y="450.5" width="75" height="75"></rect><rect class="cls-3" x="525.5" y="525.5" width="75" height="75"></rect></g><g id="Attack" class="cls-4"><rect class="cls-5" x="224.9" y="1.8" width="75.6" height="297.49"></rect><rect class="cls-5" x="0.5" y="300.5" width="225" height="75"></rect><rect class="cls-5" x="300.5" y="299.3" width="300" height="76.2"></rect><rect class="cls-5" x="224.9" y="375.5" width="75.6" height="225"></rect><rect class="cls-5" x="300.5" y="375.5" width="75" height="75"></rect><rect class="cls-5" x="300.5" y="225.5" width="75" height="73.8"></rect><rect class="cls-5" x="150.5" y="225.5" width="74.4" height="74.43"></rect><rect class="cls-5" x="150.5" y="375.5" width="74.4" height="75"></rect><rect class="cls-5" x="375.5" y="450.5" width="75" height="75"></rect><rect class="cls-5" x="450.5" y="525.5" width="75" height="75"></rect><rect class="cls-5" x="375.5" y="150.5" width="75" height="75"></rect><rect class="cls-5" x="450.5" y="75.5" width="75" height="75"></rect><rect class="cls-5" x="525.5" y="1.8" width="75" height="73.69"></rect><rect class="cls-5" x="75.5" y="450.5" width="75" height="75"></rect><rect class="cls-5" x="0.5" y="525.5" width="75" height="75"></rect><rect class="cls-5" x="75.5" y="150.5" width="75" height="75"></rect><rect class="cls-5" x="0.5" y="75.5" width="75.1" height="75.05"></rect></g><g id="Queen"><use width="60.6" height="56.99" transform="translate(233.2 308.5)" xlink:href="#Queen-2"></use><rect class="cls-6" x="0.5" y="0.5" width="600" height="600"></rect><line class="cls-6" x1="0.5" y1="525.5" x2="600.5" y2="525.5"></line><line class="cls-6" x1="0.5" y1="450.5" x2="600.5" y2="450.5"></line><line class="cls-6" x1="0.5" y1="375.5" x2="600.5" y2="375.5"></line><line class="cls-6" x1="0.5" y1="300.5" x2="600.5" y2="300.5"></line><line class="cls-6" x1="0.5" y1="225.5" x2="600.5" y2="225.5"></line><line class="cls-6" x1="0.5" y1="150.5" x2="600.5" y2="150.5"></line><line class="cls-6" x1="0.5" y1="75.5" x2="600.5" y2="75.5"></line><line class="cls-6" x1="525.5" y1="0.5" x2="525.5" y2="600.5"></line><line class="cls-6" x1="450.5" y1="0.5" x2="450.5" y2="600.5"></line><line class="cls-6" x1="375.5" y1="0.5" x2="375.5" y2="600.5"></line><line class="cls-6" x1="300.5" y1="0.5" x2="300.5" y2="600.5"></line><line class="cls-6" x1="225.5" y1="0.5" x2="225.5" y2="600.5"></line><line class="cls-6" x1="150.5" y1="0.5" x2="150.5" y2="600.5"></line><line class="cls-6" x1="75.5" y1="0.5" x2="75.5" y2="600.5"></line></g></g></svg> 