<?xml version="1.0" encoding="UTF-8" standalone="yes"?>
<!DOCTYPE svg PUBLIC "-//W3C//DTD SVG 1.0//EN" "http://www.w3.org/TR/2001/REC-SVG-20010904/DTD/svg10.dtd">
<svg height="300" width="400" xmlns="http://www.w3.org/2000/svg" xmlns:svg="http://www.w3.org/2000/svg" xmlns:xlink="http://www.w3.org/1999/xlink">
	<g id="lines" style="fill: none; stroke: #777; stroke-width: 3">
		<line x1="144" x2="34" y1="1" y2="74" />
		<line x1="346" x2="144" y1="11" y2="1" />
		<line x1="374" x2="346" y1="114" y2="11" />
		<line x1="376" x2="374" y1="189" y2="114" />
		<line x1="122" x2="376" y1="297" y2="189" />
		<line x1="89" x2="122" y1="272" y2="297" />
		<line x1="34" x2="89" y1="74" y2="272" />
	</g>
	<g id="points" style="fill: #cc8844; stroke: #cc8844">
		<circle cx="144" cy="1" r="3" />
		<circle cx="307" cy="71" r="3" />
		<circle cx="374" cy="114" r="3" />
		<circle cx="212" cy="81" r="3" />
		<circle cx="237" cy="216" r="3" />
		<circle cx="376" cy="189" r="3" />
		<circle cx="170" cy="64" r="3" />
		<circle cx="113" cy="199" r="3" />
		<circle cx="177" cy="63" r="3" />
		<circle cx="89" cy="272" r="3" />
		<circle cx="207" cy="219" r="3" />
		<circle cx="151" cy="234" r="3" />
		<circle cx="212" cy="69" r="3" />
		<circle cx="126" cy="216" r="3" />
		<circle cx="95" cy="77" r="3" />
		<circle cx="202" cy="114" r="3" />
		<circle cx="249" cy="67" r="3" />
		<circle cx="122" cy="276" r="3" />
		<circle cx="270" cy="10" r="3" />
		<circle cx="122" cy="297" r="3" />
		<circle cx="208" cy="137" r="3" />
		<circle cx="346" cy="11" r="3" />
		<circle cx="238" cy="172" r="3" />
		<circle cx="155" cy="98" r="3" />
		<circle cx="34" cy="74" r="3" />
	</g>
	<!--
	Generated using the Perl SVG Module V2.86
	by Ronan Oger
	Info: http://www.roitsystems.com/
	-->
</svg>