<svg xmlns="http://www.w3.org/2000/svg" xmlns:xlink="http://www.w3.org/1999/xlink" viewBox="0 0 526 224"><defs><style>.cls-1{fill:#0071bc;}.cls-2{fill:none;stroke:#666;stroke-miterlimit:10;}.cls-3,.cls-5{font-size:24px;font-family:MyriadPro-Bold, Myriad Pro;font-weight:700;}.cls-3{fill:gray;}.cls-4{fill:#666;}.cls-5{fill:#009245;}.cls-6{letter-spacing:-0.02em;}.cls-7{letter-spacing:-0.01em;}.cls-8{letter-spacing:0em;}.cls-9{letter-spacing:-0.01em;}</style><symbol id="Person" data-name="Person" viewBox="0 0 87.8 180"><path class="cls-1" d="M57.3,48.1h-45A12.3,12.3,0,0,0,0,60.3v51.2a12.4,12.4,0,0,0,12.3,12.3h1v43.9A12.3,12.3,0,0,0,25.6,180H44a12.4,12.4,0,0,0,12.3-12.3V123.8h1a12.3,12.3,0,0,0,12.2-12.3V60.3A12.2,12.2,0,0,0,57.3,48.1Z"/><circle class="cls-1" cx="34.8" cy="21.5" r="21.5"/></symbol></defs><g id="Layer_1" data-name="Layer 1"><rect class="cls-2" x="32" y="14" width="472" height="180" rx="10.1"/><line class="cls-2" x1="32" y1="164" x2="504" y2="164"/><line class="cls-2" x1="32" y1="134" x2="504" y2="134"/><line class="cls-2" x1="32" y1="104" x2="504" y2="104"/><line class="cls-2" x1="32" y1="74" x2="504" y2="74"/><line class="cls-2" x1="32" y1="44" x2="504" y2="44"/><line class="cls-2" x1="425.3" y1="14" x2="425.3" y2="194"/><line class="cls-2" x1="346.7" y1="14" x2="346.7" y2="194"/><line class="cls-2" x1="268" y1="14" x2="268" y2="194"/><line class="cls-2" x1="189.3" y1="14" x2="189.3" y2="194"/><line class="cls-2" x1="110.7" y1="14" x2="110.7" y2="194"/></g><g id="Layer_2" data-name="Layer 2"><use width="87.8" height="180" transform="translate(42.8 44) scale(0.83)" xlink:href="#Person"/><use width="87.8" height="180" transform="translate(218.2 134) scale(0.33)" xlink:href="#Person"/><use width="87.8" height="180" transform="translate(272 14)" xlink:href="#Person"/><use width="87.8" height="180" transform="translate(145 164) scale(0.17)" xlink:href="#Person"/><path class="cls-1" d="M479.8,106h-30a8.2,8.2,0,0,0-8.2,8.2v34.1a8.2,8.2,0,0,0,8.2,8.2h.7v29.3a8.2,8.2,0,0,0,8.1,8.2h12.3a8.2,8.2,0,0,0,8.2-8.2V156.5h.7a8.2,8.2,0,0,0,8.2-8.2V114.2A8.2,8.2,0,0,0,479.8,106Z"/><circle class="cls-1" cx="464.8" cy="88.3" r="14.3"/><path class="cls-1" d="M397,128H374.5a6.1,6.1,0,0,0-6.1,6.2v25.5a6.1,6.1,0,0,0,6.1,6.2h.5v22a6.2,6.2,0,0,0,6.2,6.1h9.2a6.2,6.2,0,0,0,6.1-6.1v-22h.5a6.2,6.2,0,0,0,6.2-6.2V134.2A6.2,6.2,0,0,0,397,128Z"/><circle class="cls-1" cx="385.8" cy="114.7" r="10.7"/><text class="cls-3" transform="translate(12 17.9)">6<tspan x="0" y="30">5</tspan><tspan x="0" y="60">4</tspan><tspan x="0" y="90">3</tspan><tspan x="0" y="120">2</tspan><tspan x="0" y="150">1</tspan><tspan x="0" y="180">0</tspan></text><line class="cls-2" x1="52.5" y1="210" x2="42.1" y2="210"/><polygon class="cls-4" points="35 210 44.9 205.9 42.6 210 44.9 214.1 35 210"/><text class="cls-5" transform="translate(55.4 217.2)"><tspan class="cls-6">F</tspan><tspan class="cls-7" x="12.2" y="0">r</tspan><tspan class="cls-8" x="21.1" y="0">o</tspan><tspan class="cls-9" x="34.9" y="0">n</tspan><tspan x="48.9" y="0">t</tspan></text><line class="cls-2" x1="119.5" y1="210.5" x2="503.5" y2="210.5"/></g></svg>