<?xml version="1.0" encoding="utf-8"?>
<!-- Generator: Adobe Illustrator 24.0.2, SVG Export Plug-In . SVG Version: 6.00 Build 0)  -->
<svg version="1.1" xmlns="http://www.w3.org/2000/svg" xmlns:xlink="http://www.w3.org/1999/xlink" x="0px" y="0px"
	 viewBox="0 0 400 400" style="enable-background:new 0 0 400 400;" xml:space="preserve">
<style type="text/css">
	.st0{fill:#1DA1F2;}
	.st1{fill:#FFFFFF;}
</style>
<g id="Dark_Blue">
	<path class="st0" d="M350,400H50c-27.61,0-50-22.39-50-50V50C0,22.39,22.39,0,50,0h300c27.61,0,50,22.39,50,50v300
		C400,377.61,377.61,400,350,400z"/>
</g>
<g id="Logo__x2014__FIXED">
	<path class="st1" d="M153.62,301.59c94.34,0,145.94-78.16,145.94-145.94c0-2.22-0.05-4.43-0.15-6.63
		c10.01-7.24,18.72-16.27,25.59-26.56c-9.19,4.08-19.08,6.83-29.46,8.07c10.59-6.35,18.72-16.4,22.55-28.37
		c-9.91,5.88-20.89,10.15-32.57,12.45c-9.36-9.97-22.69-16.21-37.44-16.21c-28.33,0-51.3,22.97-51.3,51.29
		c0,4.03,0.45,7.94,1.33,11.69c-42.63-2.14-80.43-22.55-105.72-53.59c-4.41,7.58-6.95,16.39-6.95,25.78
		c0,17.8,9.06,33.5,22.82,42.69c-8.41-0.26-16.32-2.57-23.23-6.42c-0.01,0.21-0.01,0.43-0.01,0.65c0,24.84,17.68,45.58,41.15,50.28
		c-4.31,1.17-8.84,1.8-13.52,1.8c-3.3,0-6.52-0.33-9.64-0.93c6.53,20.38,25.46,35.21,47.92,35.62
		c-17.56,13.76-39.67,21.96-63.7,21.96c-4.14,0-8.22-0.24-12.24-0.71C97.7,293.1,124.65,301.59,153.62,301.59"/>
</g>
<g id="Annotations">
</g>
</svg>
